# xmcd
#
# Track frame offsets:
#	150
#	15243
#	32379
#	48324
#	62202
#	77103
#	93540
#	111781
#	128677
#	144826
#	163525
#	177631
#
# Disc length: 2439 seconds
#
# Revision: 0
# Processed by: cddbd v1.5.2PL0 Copyright (c) Steve Scherf et al.
# Submitted via: EZCDAudioConverter 4.0.4.1
#
DISCID=9109850c
DTITLE=Koncz Zsuzsa - X.
DYEAR=1900
DGENRE=
TTITLE0=1964
TTITLE1=A széllel szemben
TTITLE2=Védd magad!
TTITLE3=Az én világom
TTITLE4=Nem lehetek azonos
TTITLE5=Csak egy dal
TTITLE6=Nem kérek áldást
TTITLE7=Bordódi Kristóf
TTITLE8=Csók nélkül képtelenség
TTITLE9=Száz év
TTITLE10=Labdaszedegetõ
TTITLE11=Mesél a hold
EXTD=
EXTT0=
EXTT1=
EXTT2=
EXTT3=
EXTT4=
EXTT5=
EXTT6=
EXTT7=
EXTT8=
EXTT9=
EXTT10=
EXTT11=
PLAYORDER=
